<svg xmlns="http://www.w3.org/2000/svg" width="532" height="532" fill="none" viewBox="0 0 532 532">
  <mask id="a" width="532" height="532" x="0" y="0" maskUnits="userSpaceOnUse" style="mask-type:alpha">
    <circle cx="266" cy="266" r="266" fill="#121212"/>
  </mask>
  <g mask="url(#a)">
    <path fill="#FEF7FA" d="M-.003.004h529.237v535.547H-.003z"/>
    <path fill="#FEF7FA" d="M425.6 425.6H532V532H425.6z"/>
    <path fill="#C5C6C8" d="M319.2 425.6h106.4V532H319.2zm106.4-106.4H532v106.4H425.6z"/>
    <path fill="#FEF7FA" d="M319.2 319.2h106.4v106.4H319.2zM212.8 425.6h106.4V532H212.8z"/>
    <path fill="#C5C6C8" d="M106.4 425.6h106.4V532H106.4zm106.4-106.4h106.4v106.4H212.8z"/>
    <path fill="#FEF7FA" d="M106.4 319.2h106.4v106.4H106.4zm319.2-106.4H532v106.4H425.6z"/>
    <path fill="#C5C6C8" d="M319.2 212.8h106.4v106.4H319.2zm106.4-106.4H532v106.4H425.6z"/>
    <path fill="#FEF7FA" d="M319.2 106.4h106.4v106.4H319.2zM212.8 212.8h106.4v106.4H212.8z"/>
    <path fill="#C5C6C8" d="M106.4 212.8h106.4v106.4H106.4zm106.4-106.4h106.4v106.4H212.8z"/>
    <path fill="#FEF7FA" d="M0 425.6h106.4V532H0z"/>
    <path fill="#C5C6C8" d="M0 319.2h106.4v106.4H0z"/>
    <path fill="#FEF7FA" d="M0 212.8h106.4v106.4H0zM425.6 0H532v106.4H425.6z"/>
    <path fill="#C5C6C8" d="M319.2 0h106.4v106.4H319.2z"/>
    <path fill="#FEF7FA" d="M212.8 0h106.4v106.4H212.8z"/>
    <path fill="#C5C6C8" d="M106.4 0h106.4v106.4H106.4z"/>
    <path fill="#FEF7FA" d="M0 0h106.4v106.4H0z"/>
    <path fill="#C5C6C8" d="M0 106.4h106.4v106.4H0z"/>
    <path fill="#FEF7FA" d="M106.4 106.4h106.4v106.4H106.4z"/>
    <path fill="#000" d="M164.117 417.068h195.736V399H164.117v18.068Zm-6.525 11.042c0 12.547-21.581 28.105-21.581 28.105v29.11h251.947v-29.11s-21.079-16.06-21.079-28.105H157.592Zm74.782-390.468S106.401 48.699 106.4 186.702c0 44.166 29.51 101.381 29.11 129.487-.409 28.713-10.54 72.773-10.54 72.773s33.626-5.018 42.661-40.652l76.286 14.052v7.529l-64.242-3.513-15.558 21.581h195.736v-5.521l-192.222-40.653c-8.031-2.008-24.593 14.555-24.593 14.555s10.54-40.151 10.54-56.212v-12.045s-25.597-14.554-25.597-33.626l22.084 10.539v-42.66s-40.152-29.611-29.612-43.664l29.612 18.57v-39.649s-26.601-31.117-11.544-47.68l20.075 25.597 13.049-21.581s0-56.714 21.581-58.22v34.129l25.095-13.05c0-18.067 14.053-39.146 14.053-39.146Z"/>
    <path fill="#000" d="M372.4 365.374c-4.015 1.003-204.769-49.185-204.769-49.185s2.509-32.623 5.018-32.623c2.51 0 0 29.11 0 29.11H186.2v-14.053l182.185 42.66 8.532-10.539 12.883 10.539-17.4 24.091Z"/>
    <path fill="#000" fill-rule="evenodd" d="M345.298 99.374c-1.506-3.011-29.11-18.068-34.129-18.068-1.23 0-2.52 1.116-4.477 2.808-6.027 5.21-18.374 15.885-54.745 16.264-13.551-31.117 43.162-51.568 43.162-51.568s-24.592 25.971-18.57 25.47c45.672-1.004 37.14-43.163 36.137-43.163-14.929 0-26.394 11.734-32.216 17.693-2.007 2.054-3.344 3.422-3.921 3.386-48.682-3.01-43.664 35.634-43.664 35.634s-68.256 17.212-68.256 96.865c0 47.177 14.053 77.29 14.053 77.29h8.609c.526-.214 1.77-3.45 0-12.753-3.296-17.332-8.609-45.268-8.609-64.537 0-69.277 36.135-74.782 36.135-74.782s-16.562 17.566-17.566 74.782c-1.003 57.215 8.031 86.324 12.548 88.834 4.517 2.509 147.053 35.131 147.053 35.131s-68.76-71.267-65.246-93.852c0 0-9.395 2.607-16.061 2.509-6.675-.098-16.562-2.509-16.562-2.509 2.158 33.908 23.135 47.483 40.083 56.013 10.646 5.358 18.911 9.517 18.136 17.262-108.407-19.072-94.354-112.422-94.354-112.422s44.165 21.079 58.721 21.079c35.131 0 45.671-33.627 56.211-33.627s22.082 15.559 22.082 15.559c10.54 12.045 25.596 7.528 25.596 7.528.502 21.079-35.132-.502-40.15-.502-5.019 0-32.121 21.08-32.121 21.08s41.154-3.012 53.702 3.011c12.547 6.023 19.574 12.547 19.574 12.547 14.053-23.087 33.626-13.551 33.626-33.626 0-15.559-44.988-38.368-60.226-57.215-11.196-18.058-12.516-24.421-13.311-28.252-.31-1.494-.54-2.603-1.244-3.87Zm-55.709 23.087c2.008-1.004 31.619 3.011 37.139 18.068-7.292.625-18.102 1.505-26.634 0-11.042-7.529-12.513-17.065-10.505-18.068Z" clip-rule="evenodd"/>
  </g>
</svg>
