<svg xmlns="http://www.w3.org/2000/svg" width="900" height="900" fill="none" viewBox="0 0 900 900">
  <path fill="#911A39" d="M709.329 729.139h75.391v39.735h-75.391zm-596.096 0h75.391v39.735h-75.391z"/>
  <path fill="#E31C42" d="M37.339 729.139h151.286l-71.371 20.364S261 790.729 450.987 790.729s326.697-41.226 326.697-41.226l-68.355-20.364h156.814l-47.748 52.649 47.748 47.682-72.879 14.901v24.338S640.974 900 450.987 900s-345.293-31.291-345.293-31.291v-24.338L37.339 829.47l44.23-47.682-44.23-52.649Z"/>
  <path fill="#fff" d="M182.219 820.445c2.21.933 3.785 2.325 4.727 4.174.964 1.835 1.158 4.066.583 6.692-.838 3.822-2.922 6.417-6.253 7.785-3.31 1.352-8.092 1.444-14.348.276a66.385 66.385 0 0 1-4.995-1.157 61.505 61.505 0 0 1-4.952-1.483l8.48-38.691a52.34 52.34 0 0 1 5.656.192c2.024.155 3.98.409 5.867.762 3.632.678 6.522 1.618 8.673 2.819 2.169 1.205 3.634 2.715 4.396 4.531.784 1.801.898 3.97.342 6.507-.462 2.108-1.406 3.856-2.833 5.244-1.427 1.389-3.208 2.171-5.343 2.349Zm-5.378-15.034a30.075 30.075 0 0 0-4.741-.523l-2.22 10.128 4.557.851c1.798.336 3.259.414 4.384.234 1.125-.181 1.987-.615 2.587-1.302.618-.684 1.06-1.634 1.326-2.848.274-1.251.259-2.295-.044-3.132-.299-.856-.921-1.558-1.868-2.107-.928-.545-2.255-.979-3.981-1.301Zm-6.426 28.169c2.067.386 3.755.497 5.064.333 1.308-.165 2.322-.608 3.041-1.329.738-.717 1.253-1.746 1.547-3.086.427-1.947.138-3.488-.867-4.624-.987-1.133-2.775-1.941-5.363-2.425l-5.366-1.002-2.437 11.119c1.501.411 2.961.749 4.381 1.014Zm40.783 13.061-6.484-16.234-.677-.111a73.438 73.438 0 0 1-3.471-.68l-2.848 14.816-7.905-1.296 7.535-39.193c3.812-.172 7.55.042 11.213.642 5.342.876 9.135 2.59 11.381 5.144 2.263 2.557 2.984 5.972 2.162 10.246-.52 2.805-1.616 5.07-3.289 6.797-1.654 1.729-3.774 2.882-6.361 3.459l7.325 17.816-8.581-1.406Zm-9.405-23.409c1.225.312 2.369.555 3.434.729 2.725.447 4.836.265 6.332-.546 1.514-.807 2.492-2.361 2.934-4.659.428-2.227.13-3.971-.893-5.231-1.002-1.276-2.739-2.116-5.212-2.522a27.29 27.29 0 0 0-4.176-.351l-2.419 12.58Z"/>
  <path fill="#fff" d="m243.943 851.513-.994-11.167-12.437-1.775-4.6 10.368-7.848-1.12 17.647-38.478 11.948 1.706 4.241 41.601-7.957-1.135Zm-10.525-19.508 8.88 1.268-1.582-17.788-7.298 16.52Zm50.976-16.278 7.571.908-5.65 40.202-8.116-.973-11.091-28.48-3.752 26.702-7.572-.907 5.65-40.202 8.116.972 11.091 28.48 3.753-26.702Zm17.284 42.7 3.842-33.161-11.164-1.103.83-7.167 30.437 3.007-.83 7.167-11.165-1.103-3.843 33.161-8.107-.801Zm49.981-29.237-16.486-1.334-.96 10.104 13.89 1.124-.669 7.045-13.89-1.124-1.54 16.221-8.12-.657 3.837-40.416 24.607 1.992-.669 7.045Zm14.603 35.035c-5.11-.313-8.996-2.237-11.657-5.771-2.642-3.534-3.707-8.866-3.194-15.998.513-7.131 2.333-12.287 5.458-15.466 3.144-3.178 7.271-4.611 12.382-4.297 5.111.313 8.987 2.237 11.63 5.77 2.642 3.533 3.707 8.865 3.193 15.997-.513 7.132-2.332 12.287-5.457 15.466-3.126 3.18-7.244 4.612-12.355 4.299Zm.487-6.758c1.715.105 3.189-.244 4.42-1.048 1.232-.822 2.232-2.226 2.998-4.213.786-2.003 1.3-4.692 1.543-8.067.252-3.502.143-6.312-.328-8.429-.47-2.136-1.257-3.686-2.361-4.652-1.104-.965-2.522-1.501-4.257-1.607-1.734-.107-3.217.251-4.449 1.073-1.231.804-2.231 2.209-2.998 4.213-.767 1.987-1.271 4.667-1.514 8.042-.252 3.502-.143 6.321.327 8.456.47 2.118 1.258 3.659 2.362 4.624 1.104.966 2.523 1.502 4.257 1.608Zm42.451 8.321-8.744-15.33-.685-.027a72.97 72.97 0 0 1-3.531-.247l-.69 15.071-8.004-.313 1.826-39.869a53.697 53.697 0 0 1 11.183-.744c5.408.211 9.407 1.447 11.994 3.707 2.606 2.262 3.809 5.566 3.61 9.914-.112 2.85-.872 5.236-2.278 7.158-1.387 1.922-3.319 3.329-5.794 4.221l9.802 16.798-8.689-.339Zm-12.662-22.098a40.91 40.91 0 0 0 3.501.301c2.759.108 4.82-.333 6.183-1.323 1.382-.989 2.126-2.653 2.233-4.991.104-2.266-.441-3.961-1.634-5.088-1.174-1.144-3.013-1.764-5.516-1.862a27.061 27.061 0 0 0-4.181.166l-.586 12.797Zm34.635 23.16a84.738 84.738 0 0 1-9.451-.707l.781-39.821c3.709-.725 7.292-1.058 10.747-1 6.564.11 11.422 1.883 14.574 5.319 3.17 3.436 4.685 8.702 4.546 15.796-.095 4.827-.94 8.754-2.536 11.781-1.577 3.028-3.916 5.248-7.017 6.659-3.082 1.394-6.963 2.051-11.644 1.973Zm2.246-6.794c2.304.039 4.214-.368 5.731-1.221 1.517-.871 2.679-2.314 3.487-4.331.826-2.034 1.273-4.77 1.34-8.208.068-3.419-.272-6.159-1.018-8.22-.727-2.078-1.832-3.578-3.314-4.499-1.481-.921-3.356-1.401-5.623-1.439-1.262-.021-2.425.06-3.489.244l-.54 27.507c1.223.094 2.366.149 3.426.167Zm54.469 6.94c-5.943.08-10.485-1.496-13.627-4.728-3.142-3.231-4.77-8.486-4.884-15.763-.112-7.113 1.414-12.391 4.579-15.835 3.165-3.463 7.764-5.234 13.798-5.315 2.652-.036 5.152.232 7.502.805l.108 6.884a26.685 26.685 0 0 0-6.87-.786c-2.451.033-4.464.499-6.041 1.398-1.559.898-2.725 2.377-3.497 4.436-.773 2.04-1.132 4.77-1.078 8.189.055 3.529.492 6.303 1.31 8.322.818 2.019 2.011 3.448 3.579 4.287 1.586.82 3.622 1.213 6.109 1.18 1.92-.026 4.217-.487 6.892-1.382l.108 6.884c-1.054.417-2.302.753-3.743 1.011a25.907 25.907 0 0 1-4.245.413Zm11.87-.708-1.664-40.563 8.141-.285.66 16.088 13.954-.488-.66-16.088 8.115-.284 1.664 40.563-8.115.284-.698-17.02-13.954.488.699 17.02-8.142.285Zm44.616-8.846 17.007-.959.462 6.979-25.004 1.411-2.681-40.508 24.73-1.396.462 6.98-16.733.944.618 9.333 13.994-.789.462 6.979-13.994.79.677 10.236Zm30.711 5.556c-1.55.116-3.203.102-4.96-.041-1.756-.144-3.35-.419-4.78-.826l-.599-6.831c3.357.812 6.549 1.106 9.576.879 4.504-.337 6.616-2.099 6.337-5.287-.075-.856-.303-1.573-.684-2.149-.381-.577-.985-1.073-1.81-1.488-.828-.433-1.964-.834-3.41-1.202l-2.814-.698c-2.912-.754-5.253-2.018-7.024-3.793-1.752-1.776-2.756-4.121-3.012-7.036-.224-2.55.15-4.779 1.121-6.685.971-1.906 2.535-3.426 4.694-4.559 2.175-1.153 4.922-1.853 8.241-2.101a34.891 34.891 0 0 1 4.455-.058c1.457.074 2.746.234 3.869.48l.599 6.832c-2.34-.522-4.859-.682-7.558-.48-5.143.384-7.575 2.161-7.297 5.331.072.82.278 1.501.62 2.044.341.543.878 1.016 1.611 1.42.749.384 1.782.747 3.096 1.089l2.788.699c3.211.823 5.71 2.113 7.498 3.868 1.804 1.735 2.839 4.124 3.106 7.166.222 2.532-.169 4.771-1.173 6.716-.988 1.926-2.541 3.473-4.659 4.64-2.121 1.148-4.731 1.839-7.831 2.07Zm26.195-2.164a31.727 31.727 0 0 1-4.961.041c-1.759-.114-3.358-.362-4.797-.744l-.733-6.818c3.373.755 6.571.995 9.594.718 4.498-.413 6.576-2.21 6.234-5.392-.092-.854-.334-1.567-.727-2.136-.392-.57-1.005-1.056-1.839-1.457-.836-.419-1.98-.801-3.433-1.145l-2.829-.65c-2.926-.704-5.292-1.929-7.098-3.673-1.787-1.746-2.838-4.073-3.151-6.982-.273-2.546.057-4.779.99-6.701.934-1.922 2.469-3.467 4.605-4.636 2.153-1.189 4.886-1.935 8.2-2.239 1.53-.14 3.015-.185 4.455-.133 1.458.05 2.751.189 3.879.416l.733 6.818c-2.351-.482-4.873-.6-7.569-.353-5.135.471-7.533 2.288-7.192 5.452.087.818.307 1.496.659 2.032.352.537.899 1.001 1.64 1.393.757.371 1.796.716 3.118 1.036l2.801.652c3.227.769 5.752 2.016 7.574 3.74 1.839 1.704 2.921 4.075 3.248 7.111.271 2.527-.076 4.772-1.042 6.733-.95 1.942-2.473 3.514-4.569 4.716-2.098 1.183-4.694 1.917-7.79 2.201Zm48.501-5.173c-5.902.699-10.613-.391-14.132-3.27-3.52-2.879-5.78-7.923-6.782-15.132-.978-7.046-.104-12.443 2.625-16.19 2.725-3.766 7.085-6.003 13.077-6.713 2.634-.312 5.154-.306 7.562.016l.947 6.82a26.865 26.865 0 0 0-6.931-.063c-2.433.288-4.38.96-5.839 2.017-1.441 1.054-2.42 2.643-2.937 4.766-.52 2.105-.545 4.851-.074 8.238.485 3.496 1.258 6.203 2.318 8.121 1.061 1.918 2.422 3.212 4.083 3.88 1.678.649 3.752.826 6.221.534 1.907-.226 4.136-.922 6.687-2.09l.948 6.82c-.998.523-2.198.987-3.6 1.393a25.776 25.776 0 0 1-4.173.853Zm11.39-1.962-6.428-40.085 8.072-1.104 5.285 32.962 15.818-2.162 1.142 7.123-23.889 3.266Zm41.461-5.511c-3.377.535-6.261.428-8.65-.323-2.39-.75-4.343-2.208-5.862-4.373-1.5-2.168-2.598-5.122-3.293-8.862l-4.559-24.514 8.019-1.271 4.729 25.431c.542 2.912 1.493 4.927 2.854 6.044 1.36 1.117 3.196 1.492 5.508 1.126 2.312-.367 3.899-1.285 4.76-2.754.879-1.472 1.047-3.664.506-6.577l-4.73-25.431 7.857-1.245 4.559 24.514c.695 3.739.728 6.862.097 9.368-.613 2.504-1.892 4.474-3.838 5.911-1.945 1.438-4.597 2.423-7.957 2.956Zm38.059-28.435c2.428.073 4.464.794 6.107 2.163 1.657 1.349 2.77 3.337 3.339 5.964.828 3.825-.008 6.962-2.507 9.412-2.485 2.429-6.857 4.221-13.115 5.376a67.05 67.05 0 0 1-5.091.717c-1.879.216-3.608.35-5.187.399l-8.381-38.712a50.861 50.861 0 0 1 5.296-1.842 53.808 53.808 0 0 1 5.73-1.392c3.632-.671 6.692-.836 9.178-.495 2.504.337 4.488 1.207 5.951 2.609 1.477 1.382 2.491 3.342 3.04 5.88.457 2.109.318 4.058-.417 5.848s-2.049 3.148-3.943 4.073Zm-11.255-11.946a29.638 29.638 0 0 0-4.591 1.21l2.194 10.133 4.559-.841c1.798-.332 3.178-.782 4.14-1.35.962-.567 1.575-1.275 1.84-2.124.283-.851.294-1.884.03-3.1-.27-1.251-.721-2.209-1.351-2.873-.634-.682-1.502-1.108-2.605-1.276-1.084-.171-2.489-.098-4.216.221Zm5.869 28.275c2.068-.382 3.671-.882 4.809-1.501 1.138-.619 1.887-1.389 2.249-2.311.379-.925.424-2.058.134-3.398-.422-1.948-1.334-3.267-2.736-3.956-1.385-.693-3.371-.8-5.961-.322l-5.368.991 2.409 11.126a55.226 55.226 0 0 0 4.464-.629Z"/>
  <mask id="a" width="534" height="528" x="187" y="66" maskUnits="userSpaceOnUse" style="mask-type:alpha">
    <ellipse cx="454.003" cy="329.801" fill="#121212" rx="266.383" ry="263.245"/>
  </mask>
  <g mask="url(#a)">
    <path fill="#FEF7FA" d="M187.616 66.56h530v530h-530z"/>
    <path fill="#FEF7FA" d="M613.833 487.749h106.553v105.298H613.833z"/>
    <path fill="#C5C6C8" d="M507.279 487.749h106.553v105.298H507.279zM613.833 382.45h106.553v105.298H613.833z"/>
    <path fill="#FEF7FA" d="M507.279 382.45h106.553v105.298H507.279zM400.726 487.749h106.553v105.298H400.726z"/>
    <path fill="#C5C6C8" d="M294.172 487.749h106.553v105.298H294.172zM400.726 382.45h106.553v105.298H400.726z"/>
    <path fill="#FEF7FA" d="M294.172 382.45h106.553v105.298H294.172zm319.661-105.298h106.553V382.45H613.833z"/>
    <path fill="#C5C6C8" d="M507.279 277.152h106.553V382.45H507.279zm106.554-105.298h106.553v105.298H613.833z"/>
    <path fill="#FEF7FA" d="M507.279 171.854h106.553v105.298H507.279zM400.726 277.152h106.553V382.45H400.726z"/>
    <path fill="#C5C6C8" d="M294.172 277.152h106.553V382.45H294.172zm106.554-105.298h106.553v105.298H400.726z"/>
    <path fill="#FEF7FA" d="M187.619 487.749h106.553v105.298H187.619z"/>
    <path fill="#C5C6C8" d="M187.619 382.45h106.553v105.298H187.619z"/>
    <path fill="#FEF7FA" d="M187.619 277.152h106.553V382.45H187.619zM613.833 66.556h106.553v105.298H613.833z"/>
    <path fill="#C5C6C8" d="M507.279 66.556h106.553v105.298H507.279z"/>
    <path fill="#FEF7FA" d="M400.726 66.556h106.553v105.298H400.726z"/>
    <path fill="#C5C6C8" d="M294.173 66.556h106.553v105.298H294.173z"/>
    <path fill="#FEF7FA" d="M187.619 66.556h106.553v105.298H187.619z"/>
    <path fill="#C5C6C8" d="M187.619 171.854h106.553v105.298H187.619z"/>
    <path fill="#FEF7FA" d="M294.172 171.854h106.553v105.298H294.172z"/>
    <path fill="#000" d="M351.973 479.305h196.018v-17.881H351.973v17.881Zm-6.534 10.927c0 12.417-21.613 27.814-21.613 27.814v28.808h252.311v-28.808s-21.11-15.894-21.11-27.814H345.439Zm74.889-386.424s-126.154 10.943-126.155 147.517c0 43.708 29.552 100.331 29.151 128.145-.41 28.416-10.555 72.02-10.555 72.02s33.675-4.967 42.722-40.232l76.397 13.908v7.45l-64.335-3.477-15.58 21.358h196.018l-.001-5.464-192.499-40.232c-8.042-1.986-24.628 14.404-24.628 14.404s10.555-39.735 10.555-55.629v-11.92s-25.633-14.404-25.633-33.278l22.115 10.43v-42.219s-40.209-29.304-29.655-43.211l29.655 18.377v-39.238s-26.639-30.795-11.561-47.186l20.105 25.331 13.068-21.357s0-56.126 21.612-57.616v33.775l25.13-12.914c0-17.881 14.074-38.742 14.074-38.742Z"/>
    <path fill="#000" d="M560.556 428.146c-4.021.993-205.065-48.676-205.065-48.676s2.513-32.285 5.026-32.285 0 28.808 0 28.808h13.571v-13.907l182.447 42.219 8.544-10.431 12.901 10.431-17.424 23.841Z"/>
    <path fill="#000" fill-rule="evenodd" d="M533.415 164.901c-1.508-2.98-29.152-17.881-34.178-17.881-1.232 0-2.524 1.104-4.484 2.778-6.035 5.157-18.4 15.721-54.824 16.096-13.57-30.795 43.224-51.034 43.224-51.034s-24.627 25.703-18.596 25.206c45.738-.993 37.193-42.715 36.188-42.715-14.95 0-26.431 11.612-32.262 17.509-2.01 2.034-3.348 3.387-3.926 3.352-48.753-2.98-43.727 35.265-43.727 35.265s-68.355 17.033-68.355 95.861c0 46.689 14.073 76.49 14.073 76.49h8.622c.527-.212 1.772-3.415 0-12.621-3.301-17.152-8.622-44.799-8.622-63.869 0-68.559 36.188-74.007 36.188-74.007s-16.586 17.384-17.591 74.007c-1.005 56.622 8.042 85.43 12.565 87.914 4.524 2.483 147.265 34.768 147.265 34.768s-68.858-70.53-65.34-92.881c0 0-9.408 2.58-16.084 2.484-6.684-.097-16.586-2.484-16.586-2.484 2.161 33.557 23.168 46.991 40.141 55.433 10.662 5.302 18.938 9.419 18.163 17.084-108.564-18.875-94.491-111.259-94.491-111.259s44.229 20.861 58.805 20.861c35.183 0 45.737-33.278 56.293-33.278 10.555 0 22.114 15.398 22.114 15.398 10.555 11.92 25.633 7.45 25.633 7.45.503 20.861-35.183-.497-40.208-.497-5.026 0-32.167 20.861-32.167 20.861s41.213-2.98 53.779 2.98c12.565 5.961 19.602 12.417 19.602 12.417 14.073-22.847 33.675-13.41 33.675-33.278 0-15.397-45.054-37.97-60.314-56.622-11.211-17.87-12.534-24.167-13.33-27.96-.31-1.477-.541-2.575-1.245-3.828Zm-55.79 22.847c2.011-.993 31.665 2.981 37.193 17.881-7.303.619-18.128 1.49-26.672 0-11.058-7.45-12.532-16.887-10.521-17.881Z" clip-rule="evenodd"/>
  </g>
  <path fill="#E31C42" d="M470.086 701.324c0 10.972-9.002 19.867-20.105 19.867s-20.104-8.895-20.104-19.867c0-10.973 9.001-19.868 20.104-19.868s20.105 8.895 20.105 19.868Zm-60.314-17.881c-5.529-51.159-42.219-71.523-101.025-82.451 17.089 51.159 64.334 85.431 101.025 82.451Zm11.946 22.325c-46.699-22.746-83.735-3.001-124.529 40.258 52.882 13.092 107.453-8.028 124.529-40.258Zm-90.559-16.482c-40.408-32.443-80.961-21.336-130.472 11.868 48.609 24.392 106.568 15.8 130.472-11.868Zm-36.968-31.445c21.199-46.991-.195-82.802-45.509-121.418-11.2 52.725 12.26 105.799 45.509 121.418Zm-34.792 1.883c-30.425-41.75-72.506-41.5-129.077-22.235 40.47 36.097 98.687 42.77 129.077 22.235Zm-75.501-46.402c-20.349-47.357-61.448-56.293-120.927-49.842 31.41 44.034 86.701 63.241 120.927 49.842Zm26.36.705c34.172-38.816 24.305-79.242-7.609-129.261-26.306 47.188-19.568 104.721 7.609 129.261Zm-68.466-54.479c42.416-29.834 42.397-71.42 23.217-127.431-36.751 39.793-43.827 97.286-23.217 127.431Zm-29.564-94.357c44.473-26.749 47.476-68.229 32.413-125.455-39.547 37.082-50.78 93.925-32.413 125.455ZM85.1 370.499c50.515-12.454 65.875-51.171 68.733-110.234-48.924 23.769-76.77 74.731-68.733 110.234Zm23.288-112.032c52.045-1.334 75.535-35.838 91.284-92.884-52.975 12.721-91.341 56.503-91.284 92.884Zm29.152-87.147c51.91-3.941 73.599-39.577 86.399-97.34-52.254 15.36-88.323 61.009-86.399 97.34Zm-14.71 382.649c-10.156-50.462-48.549-67.487-108.11-73.151 21.67 49.436 71.839 79.375 108.11 73.151Zm-19.447-69.318C96.367 433.67 59.099 414.357 0 405.106c18.57 50.652 66.794 83.566 103.383 79.545Zm-24.393-69.91c11.856-50.098-15.983-81.283-67.85-110.767-.944 53.866 32.218 101.62 67.85 110.767Zm-8.715-90.616c29.605-42.323 15.26-81.418-22.071-127.63-20.846 49.78-7.693 106.219 22.071 127.63Zm28.502-100.404c37.363-35.831 30.98-76.935 3.448-129.435-30.238 44.827-28.434 102.717-3.448 129.435Zm391.451 459.722c5.528-51.159 42.219-71.523 101.024-82.451-17.088 51.159-64.334 85.431-101.024 82.451Zm-11.946 22.325c46.699-22.746 83.734-3.001 124.529 40.258-52.882 13.092-107.454-8.028-124.529-40.258Zm90.559-16.482c40.408-32.443 80.961-21.336 130.472 11.868-48.609 24.392-106.568 15.8-130.472-11.868Zm36.968-31.445c-21.199-46.991.195-82.802 45.509-121.418 11.2 52.725-12.26 105.799-45.509 121.418Zm34.792 1.883c30.425-41.75 72.506-41.5 129.077-22.235-40.47 36.097-98.687 42.77-129.077 22.235Zm75.501-46.402c20.349-47.357 61.448-56.293 120.926-49.842-31.409 44.034-86.7 63.241-120.926 49.842Zm-26.36.705c-34.172-38.816-24.305-79.242 7.609-129.261 26.306 47.188 19.568 104.721-7.609 129.261Zm68.466-54.479c-42.416-29.834-42.397-71.42-23.217-127.431 36.751 39.793 43.827 97.286 23.217 127.431Zm29.565-94.357c-44.474-26.749-47.476-68.229-32.413-125.455 39.546 37.082 50.78 93.925 32.413 125.455Zm27.128-94.692c-50.515-12.454-65.876-51.171-68.733-110.234 48.924 23.769 76.77 74.731 68.733 110.234Zm-23.289-112.032c-52.045-1.334-75.535-35.838-91.284-92.884 52.975 12.721 91.341 56.503 91.284 92.884Zm-29.151-87.147c-51.91-3.941-73.599-39.577-86.4-97.34 52.254 15.36 88.324 61.009 86.4 97.34Zm14.709 382.649c10.156-50.462 48.549-67.487 108.11-73.151-21.67 49.436-71.839 79.375-108.11 73.151Zm19.447-69.318c7.016-50.981 44.284-70.294 103.383-79.545-18.571 50.652-66.794 83.566-103.383 79.545Zm24.394-69.91c-11.857-50.098 15.983-81.283 67.85-110.767.944 53.866-32.218 101.62-67.85 110.767Zm8.714-90.616c-29.604-42.323-15.26-81.418 22.072-127.63 20.846 49.78 7.692 106.219-22.072 127.63Zm-28.502-100.404c-37.362-35.831-30.979-76.935-3.447-129.435 30.238 44.827 28.434 102.717 3.447 129.435Z"/>
  <path fill="#fff" d="m361.161 64.754 16.285-4.997 1.568 6.817-23.942 7.347-9.102-39.564 23.679-7.266 1.569 6.816-16.023 4.917 2.097 9.116 13.401-4.112 1.568 6.816-13.4 4.113 2.3 9.997Zm30.898-.55a31.379 31.379 0 0 1-4.899.594c-1.743.08-3.334.009-4.774-.216l-1.05-6.776c3.368.385 6.538.27 9.511-.345 4.423-.915 6.39-2.953 5.899-6.116-.131-.849-.405-1.538-.819-2.068-.415-.53-1.044-.95-1.887-1.26-.846-.33-1.994-.586-3.446-.77l-2.825-.34c-2.924-.383-5.32-1.352-7.187-2.905-1.85-1.558-2.998-3.782-3.447-6.673-.392-2.53-.173-4.813.657-6.85.83-2.037 2.272-3.762 4.327-5.175 2.069-1.435 4.733-2.49 7.992-3.164a34.66 34.66 0 0 1 4.394-.629c1.443-.112 2.727-.116 3.852-.013l1.05 6.777c-2.345-.224-4.842-.062-7.493.486-5.05 1.044-7.331 3.139-6.844 6.283.126.814.376 1.47.75 1.972.373.5.935.907 1.685 1.218.766.289 1.809.52 3.13.695l2.798.345c3.225.414 5.778 1.388 7.661 2.92 1.897 1.51 3.08 3.773 3.548 6.791.389 2.512.154 4.808-.706 6.888-.846 2.059-2.275 3.81-4.287 5.251-2.016 1.424-4.546 2.45-7.59 3.08Zm27.171-5.084-2.7-33.274-11.154 1.208-.584-7.19 30.407-3.292.584 7.19-11.154 1.208 2.7 33.273-8.099.877Zm44.226-42.612 4.963.119-.723 40.728-8.144-.196.551-31.073-6.769 4.255.135-7.597 9.987-6.236Zm26.163 1.459c4.363.472 7.647 2.381 9.852 5.727 2.222 3.348 3.053 8.476 2.493 15.384-.608 7.492-2.602 12.847-5.981 16.067-3.361 3.222-7.886 4.525-13.577 3.909-2.873-.311-5.127-.896-6.763-1.753l.532-6.562a19.64 19.64 0 0 0 3.1 1.136 25.8 25.8 0 0 0 3.473.596c3.254.353 5.778-.358 7.573-2.131 1.813-1.771 2.961-4.847 3.444-9.225-.986.628-2.113 1.076-3.382 1.343a12.698 12.698 0 0 1-3.892.158c-2.127-.23-4.02-.867-5.677-1.91-1.657-1.062-2.93-2.552-3.819-4.468-.89-1.917-1.227-4.215-1.009-6.894.217-2.68.94-4.918 2.168-6.716 1.228-1.798 2.827-3.086 4.798-3.866 1.99-.796 4.213-1.06 6.667-.795Zm-6.246 11.873c-.17 2.096.213 3.71 1.148 4.84.955 1.115 2.296 1.766 4.023 1.953a8.884 8.884 0 0 0 2.986-.173 7.394 7.394 0 0 0 2.685-1.227c.127-2.689-.003-4.817-.389-6.385-.385-1.586-.981-2.727-1.786-3.42-.788-.693-1.791-1.105-3.009-1.236-1.509-.164-2.787.222-3.835 1.157-1.046.916-1.654 2.413-1.823 4.491Zm44.247 29.122-1.077 7.05-22.766-4.642.693-4.528 11.177-11.84c1.807-1.907 3.156-3.598 4.047-5.076.911-1.491 1.475-2.942 1.691-4.352.281-1.844-.04-3.308-.964-4.39-.925-1.084-2.507-1.854-4.747-2.31-2.616-.534-5.096-.565-7.441-.092l1.036-6.78c1.103-.203 2.462-.27 4.077-.202 1.616.068 3.131.247 4.547.535 4.264.87 7.395 2.45 9.392 4.74 2.014 2.293 2.717 5.428 2.109 9.405-.307 2.007-.987 3.984-2.043 5.93-1.037 1.952-2.628 4.022-4.774 6.213l-7.508 7.78 12.551 2.56Zm15.879 12.875c-4.374-1.329-7.311-3.957-8.811-7.882-1.501-3.926-1.449-9.41.156-16.453 1.608-7.06 3.9-11.864 6.875-14.411 2.979-2.565 6.655-3.182 11.03-1.853 4.374 1.33 7.311 3.957 8.811 7.882 1.505 3.908 1.453 9.393-.156 16.453-1.604 7.043-3.896 11.847-6.875 14.411-2.979 2.565-6.655 3.183-11.03 1.853Zm1.505-6.606c1.26.383 2.388.278 3.384-.316 1.017-.606 1.952-1.837 2.806-3.694.875-1.87 1.704-4.525 2.488-7.966s1.193-6.224 1.228-8.349c.057-2.137-.231-3.75-.862-4.837-.61-1.1-1.545-1.842-2.804-2.225-1.26-.383-2.399-.271-3.416.335-.996.593-1.931 1.825-2.806 3.694-.875 1.87-1.702 4.516-2.482 7.94-.784 3.44-1.196 6.232-1.235 8.374-.035 2.125.253 3.738.863 4.838.631 1.088 1.577 1.823 2.836 2.206Z"/>
</svg>
